<svg width="192" height="224" viewBox="0 0 192 224" fill="none" xmlns="http://www.w3.org/2000/svg">
<rect x="2" y="34" width="188" height="188" rx="6" fill="#FCF4EE" stroke="black" stroke-width="4"/>
<path d="M183.468 185.649C105.563 158.905 77.6701 119.877 41.7279 38.9409C40.4097 35.9725 37.4251 34.0536 34.1782 34.1357L7.79777 34.8028C3.45966 34.9125 0 38.4608 0 42.8003V214C0 218.418 3.58173 222 8 222H181C185.418 222 189 218.418 189 214V193.305C189 189.843 186.743 186.773 183.468 185.649Z" fill="#EDE5DD"/>
<rect x="137" y="117" width="37" height="6" rx="3" fill="black"/>
<path d="M75 176.59L84.3882 100H106.129L117 176.59L96.2471 203L75 176.59Z" fill="#FC5E3F" stroke="black" stroke-width="2"/>
<rect x="2" y="34" width="188" height="188" rx="6" stroke="black" stroke-width="4"/>
<path d="M3 43C3 38.5817 6.58172 35 11 35H24V222H11C6.58172 222 3 218.418 3 214V43Z" fill="#D8C5B3"/>
<rect x="2" y="34" width="188" height="188" rx="6" stroke="black" stroke-width="4"/>
<path d="M84 92.5L77 74.5L94.5 58.5L112 74.5L106 92.5H84Z" fill="#FC5E3F" stroke="black" stroke-width="2"/>
<path d="M95 92L85 67.5L77.5 74L85 92H95Z" fill="#D33922" stroke="#D33922"/>
<path d="M62.2521 2H125.748L149 22.5532L124.854 85.1064L94.4473 58.2979L64.0406 86L39 23.4468L62.2521 2Z" fill="#FDF7F1"/>
<path d="M62.2521 2H125.748M62.2521 2C56.6446 20.4844 61.3394 32.3575 94.4473 58.2979M62.2521 2L39 23.4468L64.0406 86L94.4473 58.2979M125.748 2C129.555 29.0909 120.135 40.6003 94.4473 58.2979M125.748 2L149 22.5532L124.854 85.1064L94.4473 58.2979" stroke="black" stroke-width="4"/>
<path d="M126 2H62C56.9355 21.3613 62.0996 33.347 94.5 58C120.765 41.391 128.082 29.2876 126 2Z" fill="#D7C4B1" stroke="black" stroke-width="2"/>
<path d="M94 58.5L89.5 2H62.5C54.332 22.2888 62.7324 34.7898 94 58.5Z" fill="#CAB49B"/>
<rect x="81" y="11" width="26" height="4" rx="2" fill="black"/>
<path d="M126 2H62C56.9355 21.3613 62.0996 33.347 94.5 58C120.765 41.391 128.082 29.2876 126 2Z" stroke="black" stroke-width="2"/>
<path d="M84 92.5L77 74.5L94.5 58.5L112 74.5L106 92.5H84Z" stroke="black" stroke-width="2"/>
<path d="M85 188.5L97 100.5H85L75 176.5L85 188.5Z" fill="#DF452E"/>
<path d="M75 176.59L84.3882 100H106.129L117 176.59L96.2471 203L75 176.59Z" stroke="black" stroke-width="2"/>
</svg>
